REM DIRINDEX 1\8,1\2\11,1\3\12,1\3\14,1\5\15,1\5\16,1\6\17,1\6\18,1\4\19,1\4\20,1\4\21,1\4\22,1\7\23,1\7\24,1\7\25,1\2\9\26,1\2\9\27,1\2\10\28,1\2\10\29,1\2\10\30,1\2\10\31,1\2\10\32,1\3\13\33,1\3\13\34,1\3\13\35
REM DIRNAME cjc123,folder01,folder02,folder03,folder04,folder05,folder06,folder07,folder08,folder09,folder10,folder11,folder12,folder13,folder14,folder15,folder16,folder17,folder18,folder19,folder20,folder21,folder22,folder23,folder24,folder25,folder26,folder27,folder28,folder29,folder30,folder31,folder32,folder33,folder34
TITLE ""
FILE "124 124_—á•¶UNIT1_SET2.mp3" MP3
  TRACK 01 AUDIO
    TITLE "22:cjc123_2682"
    INDEX 01 00:00:00
  TRACK 02 AUDIO
    TITLE "0:"
    INDEX 01 00:02:49
  TRACK 03 AUDIO
    TITLE "19:cjc123_2683"
    INDEX 01 00:03:27
  TRACK 04 AUDIO
    TITLE "0:"
    INDEX 01 00:06:04
  TRACK 05 AUDIO
    TITLE "20:cjc123_2684"
    INDEX 01 00:06:33
  TRACK 06 AUDIO
    TITLE "0:"
    INDEX 01 00:08:66
  TRACK 07 AUDIO
    TITLE "21:cjc123_2685"
    INDEX 01 00:09:18
  TRACK 08 AUDIO
    TITLE "0:"
    INDEX 01 00:11:72
  TRACK 09 AUDIO
    TITLE "19:cjc123_2686"
    INDEX 01 00:12:46
  TRACK 10 AUDIO
    TITLE "0:"
    INDEX 01 00:15:38
  TRACK 11 AUDIO
    TITLE "20:cjc123_2687"
    INDEX 01 00:16:00
  TRACK 12 AUDIO
    TITLE "0:"
    INDEX 01 00:19:05
  TRACK 13 AUDIO
    TITLE "21:cjc123_2688"
    INDEX 01 00:19:34
  TRACK 14 AUDIO
    TITLE "0:"
    INDEX 01 00:22:23
  TRACK 15 AUDIO
    TITLE "19:cjc123_2689"
    INDEX 01 00:23:12
  TRACK 16 AUDIO
    TITLE "0:"
    INDEX 01 00:25:74
  TRACK 17 AUDIO
    TITLE "20:cjc123_2690"
    INDEX 01 00:26:42
  TRACK 18 AUDIO
    TITLE "0:"
    INDEX 01 00:29:01
  TRACK 19 AUDIO
    TITLE "21:cjc123_2691"
    INDEX 01 00:29:34
  TRACK 20 AUDIO
    TITLE "0:"
    INDEX 01 00:32:21
  TRACK 21 AUDIO
    TITLE "19:cjc123_2692"
    INDEX 01 00:33:07
  TRACK 22 AUDIO
    TITLE "0:"
    INDEX 01 00:36:42
  TRACK 23 AUDIO
    TITLE "20:cjc123_2693"
    INDEX 01 00:37:05
  TRACK 24 AUDIO
    TITLE "0:"
    INDEX 01 00:40:72
  TRACK 25 AUDIO
    TITLE "21:cjc123_2694"
    INDEX 01 00:41:24
  TRACK 26 AUDIO
    TITLE "0:"
    INDEX 01 00:44:60
  TRACK 27 AUDIO
    TITLE "19:cjc123_2695"
    INDEX 01 00:45:41
  TRACK 28 AUDIO
    TITLE "0:"
    INDEX 01 00:48:30
  TRACK 29 AUDIO
    TITLE "20:cjc123_2696"
    INDEX 01 00:48:73
  TRACK 30 AUDIO
    TITLE "0:"
    INDEX 01 00:51:48
  TRACK 31 AUDIO
    TITLE "21:cjc123_2697"
    INDEX 01 00:52:00
  TRACK 32 AUDIO
    TITLE "0:"
    INDEX 01 00:54:64
  TRACK 33 AUDIO
    TITLE "19:cjc123_2698"
    INDEX 01 00:55:50
  TRACK 34 AUDIO
    TITLE "0:"
    INDEX 01 00:57:52
  TRACK 35 AUDIO
    TITLE "20:cjc123_2699"
    INDEX 01 00:58:18
  TRACK 36 AUDIO
    TITLE "0:"
    INDEX 01 01:00:35
  TRACK 37 AUDIO
    TITLE "21:cjc123_2700"
    INDEX 01 01:00:62
  TRACK 38 AUDIO
    TITLE "0:"
    INDEX 01 01:02:67
  TRACK 39 AUDIO
    TITLE "19:cjc123_2701"
    INDEX 01 01:03:57
  TRACK 40 AUDIO
    TITLE "0:"
    INDEX 01 01:07:02
  TRACK 41 AUDIO
    TITLE "20:cjc123_2702"
    INDEX 01 01:07:35
  TRACK 42 AUDIO
    TITLE "0:"
    INDEX 01 01:09:69
  TRACK 43 AUDIO
    TITLE "21:cjc123_2703"
    INDEX 01 01:10:24
  TRACK 44 AUDIO
    TITLE "0:"
    INDEX 01 01:13:44
  TRACK 45 AUDIO
    TITLE "19:cjc123_2704"
    INDEX 01 01:14:23
  TRACK 46 AUDIO
    TITLE "0:"
    INDEX 01 01:16:54
  TRACK 47 AUDIO
    TITLE "20:cjc123_2705"
    INDEX 01 01:17:08
  TRACK 48 AUDIO
    TITLE "0:"
    INDEX 01 01:19:56
  TRACK 49 AUDIO
    TITLE "21:cjc123_2706"
    INDEX 01 01:20:10
  TRACK 50 AUDIO
    TITLE "0:"
    INDEX 01 01:22:44
  TRACK 51 AUDIO
    TITLE "19:cjc123_2707"
    INDEX 01 01:23:20
  TRACK 52 AUDIO
    TITLE "0:"
    INDEX 01 01:26:32
  TRACK 53 AUDIO
    TITLE "20:cjc123_2708"
    INDEX 01 01:26:70
  TRACK 54 AUDIO
    TITLE "0:"
    INDEX 01 01:30:13
  TRACK 55 AUDIO
    TITLE "21:cjc123_2709"
    INDEX 01 01:30:40
  TRACK 56 AUDIO
    TITLE "0:"
    INDEX 01 01:33:52
  TRACK 57 AUDIO
    TITLE "19:cjc123_2710"
    INDEX 01 01:34:34
  TRACK 58 AUDIO
    TITLE "0:"
    INDEX 01 01:36:62
  TRACK 59 AUDIO
    TITLE "20:cjc123_2711"
    INDEX 01 01:37:22
  TRACK 60 AUDIO
    TITLE "0:"
    INDEX 01 01:40:03
  TRACK 61 AUDIO
    TITLE "21:cjc123_2712"
    INDEX 01 01:40:29
  TRACK 62 AUDIO
    TITLE "0:"
    INDEX 01 01:42:57
  TRACK 63 AUDIO
    TITLE "19:cjc123_2713"
    INDEX 01 01:43:43
  TRACK 64 AUDIO
    TITLE "0:"
    INDEX 01 01:45:53
  TRACK 65 AUDIO
    TITLE "20:cjc123_2714"
    INDEX 01 01:46:12
  TRACK 66 AUDIO
    TITLE "0:"
    INDEX 01 01:48:34
  TRACK 67 AUDIO
    TITLE "21:cjc123_2715"
    INDEX 01 01:48:63
  TRACK 68 AUDIO
    TITLE "0:"
    INDEX 01 01:50:72
  TRACK 69 AUDIO
    TITLE "19:cjc123_2716"
    INDEX 01 01:51:52
  TRACK 70 AUDIO
    TITLE "0:"
    INDEX 01 01:54:37
  TRACK 71 AUDIO
    TITLE "20:cjc123_2717"
    INDEX 01 01:54:70
  TRACK 72 AUDIO
    TITLE "0:"
    INDEX 01 01:57:39
  TRACK 73 AUDIO
    TITLE "21:cjc123_2718"
    INDEX 01 01:57:64
  TRACK 74 AUDIO
    TITLE "0:"
    INDEX 01 02:00:51
  TRACK 75 AUDIO
    TITLE "19:cjc123_2719"
    INDEX 01 02:01:31
  TRACK 76 AUDIO
    TITLE "0:"
    INDEX 01 02:03:36
  TRACK 77 AUDIO
    TITLE "20:cjc123_2720"
    INDEX 01 02:03:65
  TRACK 78 AUDIO
    TITLE "0:"
    INDEX 01 02:06:34
  TRACK 79 AUDIO
    TITLE "21:cjc123_2721"
    INDEX 01 02:06:61
  TRACK 80 AUDIO
    TITLE "0:"
    INDEX 01 02:08:68
  TRACK 81 AUDIO
    TITLE "19:cjc123_2722"
    INDEX 01 02:09:46
  TRACK 82 AUDIO
    TITLE "0:"
    INDEX 01 02:11:31
  TRACK 83 AUDIO
    TITLE "20:cjc123_2723"
    INDEX 01 02:11:68
  TRACK 84 AUDIO
    TITLE "0:"
    INDEX 01 02:14:14
  TRACK 85 AUDIO
    TITLE "21:cjc123_2724"
    INDEX 01 02:14:41
  TRACK 86 AUDIO
    TITLE "0:"
    INDEX 01 02:16:26
  TRACK 87 AUDIO
    TITLE "19:cjc123_2725"
    INDEX 01 02:17:14
  TRACK 88 AUDIO
    TITLE "0:"
    INDEX 01 02:19:39
  TRACK 89 AUDIO
    TITLE "20:cjc123_2726"
    INDEX 01 02:19:68
  TRACK 90 AUDIO
    TITLE "0:"
    INDEX 01 02:22:21
  TRACK 91 AUDIO
    TITLE "21:cjc123_2727"
    INDEX 01 02:22:49
  TRACK 92 AUDIO
    TITLE "0:"
    INDEX 01 02:24:73
